<?xml version="1.0" standalone="no"?>
<!DOCTYPE svg PUBLIC "-//W3C//DTD SVG 20010904//EN"
 "http://www.w3.org/TR/2001/REC-SVG-20010904/DTD/svg10.dtd">
<svg version="1.0" xmlns="http://www.w3.org/2000/svg"
 width="500.000000pt" height="500.000000pt" viewBox="0 0 500.000000 500.000000"
 preserveAspectRatio="xMidYMid meet">

<g transform="translate(0.000000,500.000000) scale(0.100000,-0.100000)"
fill="#000000" stroke="none">
<path d="M2551 4616 c2 -3 16 -7 29 -9 65 -13 97 -39 112 -93 11 -40 -2 -64
-33 -64 -11 0 -19 -7 -19 -15 0 -18 -36 -34 -62 -27 -13 3 -18 17 -21 56 l-3
51 -2 -58 c-2 -54 -3 -57 -21 -47 -37 19 -111 6 -111 -21 0 -5 13 -3 30 6 60
31 124 -18 77 -58 -35 -29 -64 -37 -92 -27 -14 5 -25 6 -25 1 0 -24 66 -28 98
-5 22 15 22 15 11 -10 -13 -28 -5 -61 12 -50 7 4 8 9 1 13 -13 8 12 71 29 71
16 0 38 -31 39 -52 0 -29 -20 -20 -35 15 l-14 32 -1 -52 c0 -44 -3 -53 -18
-53 -19 0 -42 -18 -42 -33 0 -5 14 -7 30 -5 21 3 30 0 30 -10 0 -10 -7 -12
-25 -8 -14 4 -25 2 -25 -4 0 -5 5 -10 10 -10 6 0 8 -11 4 -26 -5 -19 -4 -25 5
-20 6 4 11 14 11 22 0 8 5 14 10 14 6 0 10 -20 10 -44 l0 -45 -32 10 c-40 11
-48 19 -59 61 l-8 33 2 -37 3 -38 -23 22 c-13 12 -24 31 -24 42 -1 18 -2 18
-6 3 -3 -10 4 -35 16 -56 18 -36 46 -180 36 -190 -8 -7 -35 67 -36 96 l0 28
-12 -25 c-6 -14 -23 -41 -38 -60 -15 -20 -29 -44 -31 -55 -2 -17 3 -21 33 -23
32 -3 37 0 43 24 6 24 8 25 24 11 11 -11 22 -13 32 -7 8 5 22 4 33 -2 19 -10
20 -7 14 71 -5 73 -3 81 12 81 16 0 19 -16 24 -147 3 -82 5 -337 3 -568 -2
-231 -2 -396 1 -368 4 58 1 56 95 68 27 3 65 18 90 35 24 17 57 30 74 30 35 0
76 37 94 85 8 19 12 110 13 252 0 203 2 225 19 240 10 9 18 24 18 35 0 15 3
16 18 7 12 -8 27 -54 51 -162 18 -84 44 -187 58 -231 27 -87 31 -123 20 -179
-7 -34 -6 -38 18 -49 45 -20 91 -128 125 -290 17 -79 40 -183 51 -231 11 -49
26 -163 34 -254 7 -90 16 -167 20 -171 4 -4 5 55 3 131 -3 75 -2 137 3 137 5
0 9 -1 9 -3 0 -14 42 -241 51 -274 11 -42 29 -58 29 -27 0 36 -37 234 -56 297
-3 9 -1 17 4 17 6 0 21 -35 35 -77 33 -104 99 -243 104 -221 2 9 -4 34 -15 55
-36 73 -104 254 -98 260 3 4 7 4 9 2 4 -5 101 -173 141 -241 25 -45 46 -62 46
-37 0 6 -38 72 -84 147 -47 75 -83 139 -80 144 11 17 83 -33 135 -93 62 -71
76 -64 26 14 -28 44 -49 62 -108 94 -86 47 -86 48 -124 238 -18 89 -35 140
-64 197 -35 66 -54 122 -91 265 -4 18 -29 66 -54 107 -44 70 -48 83 -75 233
-17 96 -26 180 -24 213 4 48 1 60 -24 92 -15 21 -33 37 -39 38 -7 0 -15 7 -18
16 -5 13 -23 15 -133 9 -71 -3 -156 -8 -190 -11 l-63 -6 0 36 c0 24 6 39 21
49 14 10 17 17 9 22 -6 4 -9 13 -6 20 2 7 -1 18 -7 24 -9 9 -9 14 1 20 10 6
10 10 -2 20 -12 11 -9 17 24 48 28 24 41 46 45 71 4 21 16 57 29 82 18 37 22
60 21 130 -3 125 -32 186 -110 221 -35 16 -96 27 -84 15z m127 -228 c15 -15
16 -64 1 -73 -17 -11 -58 4 -70 26 -20 38 38 78 69 47z m12 -143 c0 -3 -6 -21
-14 -40 -11 -26 -23 -36 -53 -44 -55 -16 -63 -14 -63 12 0 20 5 24 37 25 28 1
43 8 56 27 17 22 37 33 37 20z m72 -450 c-5 -29 -36 -52 -83 -60 -22 -4 -42
-5 -44 -3 -2 2 -1 23 2 46 l6 43 61 -3 c55 -3 61 -5 58 -23z m118 5 c-11 -11
-20 -26 -20 -32 -1 -7 -7 -2 -14 11 l-13 23 -6 -32 c-9 -44 -76 -110 -112
-110 -47 0 -106 22 -103 38 2 12 19 15 66 16 59 1 66 4 93 34 16 18 29 41 29
51 0 15 9 18 50 20 l50 1 -20 -20z m-43 -147 c5 -13 -42 -69 -67 -83 -14 -7
-38 -3 -89 16 -61 23 -71 30 -71 50 0 28 -2 28 43 9 49 -20 96 -19 132 4 32
21 46 22 52 4z m31 -130 c-13 -14 -36 -32 -52 -40 -63 -33 -196 10 -196 63 0
29 1 29 78 3 58 -20 62 -20 97 -3 20 9 44 28 53 42 l16 25 14 -33 c12 -30 11
-34 -10 -57z m29 -70 c-8 -15 -24 -36 -34 -45 -26 -24 -115 -40 -149 -28 -37
15 -94 60 -94 76 0 17 -5 18 60 -6 90 -33 135 -24 195 40 27 29 30 30 33 11 2
-11 -3 -32 -11 -48z m9 -86 c-16 -40 -59 -67 -105 -67 -36 0 -130 40 -149 63
-11 13 -4 12 40 -5 74 -28 168 -12 208 37 20 24 23 11 6 -28z m-35 -130 l-42
-39 -22 24 -22 23 31 6 c17 3 44 15 60 27 46 33 42 3 -5 -41z m-211 3 c6 -45
-1 -70 -19 -70 -36 0 -35 30 2 43 14 5 16 11 7 27 -6 11 -15 20 -20 20 -6 0
-10 8 -10 17 0 16 2 15 19 -2 11 -11 20 -27 21 -35z m218 -56 c-35 -32 -74
-46 -66 -24 4 12 91 68 98 63 3 -3 -12 -20 -32 -39z m-243 -44 c-3 -5 -11 -10
-16 -10 -6 0 -7 5 -4 10 3 6 11 10 16 10 6 0 7 -4 4 -10z m225 -15 c-14 -16
-50 -21 -50 -6 0 8 15 14 54 20 5 0 3 -6 -4 -14z m448 -347 c34 -104 52 -184
52 -231 l0 -31 -17 23 c-13 20 -72 274 -73 319 0 28 10 7 38 -80z"/>
<path d="M2504 4560 c4 -14 2 -38 -4 -55 -9 -29 -10 -28 -4 8 3 23 1 37 -6 37
-7 0 -10 -15 -8 -37 3 -42 21 -52 26 -15 2 12 7 20 12 17 5 -3 5 9 0 26 -11
38 -24 54 -16 19z"/>
<path d="M2430 4440 c-25 -15 -7 -17 40 -4 l45 12 -35 1 c-19 0 -42 -3 -50 -9z"/>
<path d="M2442 4374 c-18 -13 -21 -19 -11 -30 16 -19 73 -18 90 2 11 14 10 18
-6 30 -25 18 -45 18 -73 -2z m72 -13 c7 -11 -37 -23 -58 -15 -9 3 -13 10 -10
15 7 12 61 12 68 0z"/>
<path d="M2338 4323 c-20 -5 -25 -24 -5 -20 8 1 12 -11 12 -37 0 -26 5 -41 15
-44 13 -4 13 -3 2 11 -8 9 -10 21 -6 28 7 13 44 -47 40 -66 -2 -5 -1 -7 1 -3
3 4 17 -2 33 -13 44 -33 52 -18 13 26 -34 38 -37 31 -4 -10 9 -11 1 -7 -17 10
-18 16 -38 47 -44 70 -14 48 -18 53 -40 48z"/>
<path d="M2239 3835 c-40 -21 -73 -73 -97 -150 -24 -75 -72 -163 -72 -132 0
10 -4 16 -9 13 -9 -6 -42 64 -56 119 -6 20 -10 24 -12 13 -2 -9 9 -57 26 -106
l30 -89 -26 -64 c-15 -35 -28 -89 -29 -119 -2 -47 -2 -50 5 -20 5 21 9 27 10
15 l2 -20 8 20 c4 11 11 34 14 50 l6 30 -14 -30 c-21 -44 -18 -17 5 49 10 31
37 77 58 102 37 41 62 103 62 153 0 11 5 23 12 27 8 5 10 -26 5 -127 -7 -158
-27 -228 -87 -306 -22 -29 -35 -53 -30 -53 15 0 57 61 87 125 l27 60 28 -90
c16 -49 32 -119 37 -154 7 -60 11 -68 51 -103 59 -52 64 -39 6 16 -31 31 -46
53 -46 71 l0 26 28 -19 c53 -37 79 -45 39 -11 -21 17 -45 45 -53 62 -15 28
-15 31 4 49 19 19 21 19 46 3 15 -10 26 -13 26 -6 0 6 -3 11 -7 11 -5 0 -21
11 -37 23 l-29 23 39 23 c36 22 38 24 20 35 -11 6 -39 28 -63 50 -24 21 -43
36 -43 32 0 -18 37 -59 68 -75 l36 -18 -31 -16 c-31 -16 -31 -16 -56 16 -19
25 -25 48 -29 99 -4 65 -4 66 13 39 23 -39 77 -81 102 -81 19 1 18 3 -8 17
-70 37 -97 82 -114 193 -7 41 -14 87 -17 102 -4 21 3 36 33 69 21 23 52 48 68
55 22 10 25 13 10 13 -11 0 -32 -6 -46 -14z m21 -566 c0 -10 -29 -19 -34 -11
-2 4 -7 23 -11 42 l-7 35 26 -30 c14 -16 25 -33 26 -36z"/>
<path d="M2097 3748 c-17 -48 -31 -106 -24 -98 9 9 48 132 44 137 -3 2 -12
-15 -20 -39z"/>
<path d="M2364 3736 c36 -14 73 -38 93 -59 39 -43 45 -33 8 12 -24 27 -117 72
-148 70 -7 0 15 -11 47 -23z"/>
<path d="M2062 3725 c0 -16 2 -22 5 -12 2 9 2 23 0 30 -3 6 -5 -1 -5 -18z"/>
<path d="M2053 3630 c0 -30 2 -43 4 -27 2 15 2 39 0 55 -2 15 -4 2 -4 -28z"/>
<path d="M2420 3631 c26 -22 13 -28 -21 -11 -41 22 -16 0 28 -24 40 -23 44
-24 28 -6 -20 22 -8 28 15 8 12 -11 12 -10 0 5 -7 10 -27 25 -44 33 l-31 15
25 -20z"/>
<path d="M1965 3395 c-4 -30 -3 -76 3 -102 9 -44 10 -40 11 55 0 56 -1 102 -3
102 -3 0 -8 -25 -11 -55z"/>
<path d="M2083 3418 c-6 -7 -12 -20 -15 -28 -3 -8 -15 -39 -27 -68 -12 -29
-17 -51 -12 -48 5 4 15 23 22 44 6 20 20 54 31 75 18 37 19 48 1 25z"/>
<path d="M2427 3403 c-20 -2 -35 -8 -33 -12 5 -8 104 4 114 14 5 5 -14 5 -81
-2z"/>
<path d="M2111 3367 c-6 -14 -22 -45 -37 -69 -17 -27 -21 -38 -10 -29 21 17
70 111 62 118 -3 3 -10 -6 -15 -20z"/>
<path d="M2450 3320 c0 -16 5 -30 10 -30 6 0 10 14 10 30 0 17 -4 30 -10 30
-5 0 -10 -13 -10 -30z"/>
<path d="M1903 3147 c-2 -73 -24 -145 -86 -282 -54 -121 -77 -195 -77 -249 l1
-41 24 40 c19 30 25 35 25 20 1 -11 11 7 24 40 13 33 53 119 89 190 68 135 87
189 86 240 0 20 -7 5 -19 -42 -10 -39 -51 -134 -90 -210 -39 -76 -68 -127 -64
-113 4 13 10 49 14 80 4 30 19 82 34 116 14 33 32 86 40 117 10 37 26 68 46
88 16 17 30 37 30 45 0 22 -8 17 -25 -16 -20 -38 -35 -38 -35 -1 0 58 -15 38
-17 -22z m-99 -384 c-9 -48 -53 -164 -54 -141 0 21 49 178 56 178 3 0 2 -17
-2 -37z"/>
<path d="M2469 3163 c0 -25 -1 -26 -9 -8 -7 17 -9 14 -9 -14 -1 -27 2 -31 12
-22 8 6 16 9 18 6 3 -2 3 11 1 30 -5 42 -12 46 -13 8z"/>
<path d="M2492 3165 c0 -16 2 -22 5 -12 2 9 2 23 0 30 -3 6 -5 -1 -5 -18z"/>
<path d="M2008 3010 c-4 -25 -10 -55 -13 -65 -3 -11 2 -5 10 14 9 18 15 48 13
65 -3 27 -4 26 -10 -14z"/>
<path d="M2230 3023 c0 -15 78 -113 91 -113 11 0 -10 31 -60 90 -17 19 -31 30
-31 23z"/>
<path d="M2488 3007 c-12 -29 -10 -73 3 -60 6 6 9 26 7 44 -2 26 -5 30 -10 16z"/>
<path d="M1980 2912 c0 -6 -25 -48 -55 -92 -60 -88 -95 -154 -115 -213 -20
-62 -5 -53 19 12 12 32 44 93 71 135 60 91 93 156 86 164 -3 3 -6 0 -6 -6z"/>
<path d="M2240 2864 c0 -6 7 -19 15 -30 17 -22 20 -38 5 -29 -18 11 -10 -10
20 -49 17 -22 30 -35 30 -28 0 6 -4 14 -10 17 -5 3 -10 11 -10 17 0 7 6 6 15
-2 8 -7 -1 13 -20 45 -38 64 -45 73 -45 59z m44 -80 c3 -8 2 -12 -4 -9 -6 3
-10 10 -10 16 0 14 7 11 14 -7z"/>
<path d="M2553 2640 c0 -124 3 -199 6 -168 3 31 4 133 0 225 l-5 168 -1 -225z"/>
<path d="M2486 2778 c3 -42 1 -47 -5 -23 -11 40 -12 3 -2 -50 8 -37 9 -38 11
-10 l3 30 8 -35 c5 -22 6 -6 2 45 -2 44 -8 84 -12 88 -5 5 -7 -16 -5 -45z"/>
<path d="M2910 2800 c-1 -3 -4 -16 -5 -30 -2 -14 -6 -36 -10 -50 -6 -24 -5
-24 10 3 9 15 14 40 12 55 -2 15 -5 25 -7 22z"/>
<path d="M2223 2633 c-1 -69 -39 -247 -67 -315 -19 -45 -20 -59 -2 -35 11 15
13 -3 8 -115 -5 -147 7 -247 39 -333 28 -75 33 -65 8 17 -44 147 -43 386 2
593 10 49 19 100 19 114 0 13 2 22 5 19 3 -3 8 -162 10 -354 3 -192 9 -371 13
-399 5 -28 7 92 6 275 -3 320 0 339 25 143 5 -45 23 -115 39 -157 28 -71 29
-80 21 -148 -16 -131 -21 -262 -12 -298 8 -28 11 -3 16 120 4 85 10 170 14
188 l8 33 44 -81 c25 -44 46 -78 48 -76 2 2 -9 37 -25 77 -81 204 -155 466
-192 678 -11 63 -22 116 -24 118 -2 2 -3 -27 -3 -64z"/>
<path d="M2290 2631 c0 -7 27 -95 59 -195 67 -203 95 -302 122 -426 l19 -85
-5 63 c-6 81 -37 197 -119 446 -64 192 -76 224 -76 197z"/>
<path d="M2820 2632 c-8 -3 -19 -11 -23 -18 -4 -8 -19 -14 -31 -14 -13 0 -26
-7 -30 -15 -3 -8 -11 -15 -19 -15 -21 0 -59 -46 -63 -76 -2 -20 0 -24 9 -15
20 20 37 12 37 -19 0 -36 -33 -60 -48 -34 -8 15 -10 15 -16 -1 -7 -20 9 -45
29 -45 23 0 75 51 75 73 0 12 4 28 9 36 8 12 13 12 36 -3 37 -24 51 -65 66
-184 12 -92 11 -130 -10 -362 -12 -142 -26 -275 -31 -295 -4 -20 -26 -55 -49
-80 l-41 -45 15 -37 c9 -20 18 -39 20 -41 3 -3 37 0 77 7 97 16 118 44 82 112
-14 27 -14 60 1 347 18 355 29 472 50 513 22 41 18 72 -10 99 -22 21 -30 23
-54 14 -24 -10 -30 -8 -41 10 -8 12 -16 37 -19 57 -4 26 -10 34 -21 31z"/>
<path d="M1574 2425 c-7 -40 2 -59 17 -33 5 9 25 26 45 38 46 29 36 39 -12 11
-36 -22 -36 -22 -31 -1 3 11 1 20 -3 20 -5 0 -12 -16 -16 -35z"/>
<path d="M1813 2390 c0 -25 2 -35 4 -22 2 12 2 32 0 45 -2 12 -4 2 -4 -23z"/>
<path d="M1740 2418 c0 -16 23 -68 31 -68 5 0 3 12 -3 28 -12 27 -28 51 -28
40z"/>
<path d="M1780 2381 c0 -6 5 -13 10 -16 6 -3 10 1 10 9 0 9 -4 16 -10 16 -5 0
-10 -4 -10 -9z"/>
<path d="M2475 2313 c13 -46 25 -141 26 -203 1 -64 2 -64 9 -20 4 25 3 74 -1
110 -5 36 -8 72 -9 81 0 8 -7 24 -16 35 -15 19 -15 19 -9 -3z"/>
<path d="M2439 2248 c15 -45 24 -58 33 -45 1 1 -2 22 -6 47 -7 37 -10 41 -16
25 -7 -16 -9 -17 -9 -3 -1 9 -5 19 -10 23 -6 3 -2 -18 8 -47z m18 -10 c-3 -8
-6 -5 -6 6 -1 11 2 17 5 13 3 -3 4 -12 1 -19z"/>
<path d="M2553 2245 c0 -33 2 -45 4 -27 2 18 2 45 0 60 -2 15 -4 0 -4 -33z"/>
<path d="M2367 2216 c-4 -9 2 -37 12 -63 14 -35 19 -42 23 -26 7 26 -26 112
-35 89z"/>
<path d="M2212 1425 c0 -16 2 -22 5 -12 2 9 2 23 0 30 -3 6 -5 -1 -5 -18z"/>
<path d="M2788 1423 c-35 -4 -38 -7 -38 -34 0 -16 9 -47 20 -69 19 -37 20 -59
20 -399 0 -343 -1 -362 -20 -393 -31 -51 -27 -63 23 -64 23 0 57 -4 75 -8 l32
-8 1 153 c2 213 17 702 25 772 l6 57 -54 -2 c-29 -1 -70 -3 -90 -5z m86 -892
c-3 -3 -15 5 -26 19 -23 28 -23 22 3 500 17 320 24 287 27 -124 1 -214 0 -392
-4 -395z"/>
<path d="M2179 1373 c-13 -189 -15 -287 -7 -333 10 -60 55 -170 69 -170 12 0
12 -2 -11 64 -31 91 -41 168 -41 312 1 74 -1 134 -4 134 -3 0 -5 -3 -6 -7z"/>
<path d="M2222 1365 c-1 -11 5 -51 12 -90 8 -38 14 -59 14 -45 1 14 -5 54 -12
90 -8 36 -14 56 -14 45z"/>
<path d="M2252 1175 c0 -16 2 -22 5 -12 2 9 2 23 0 30 -3 6 -5 -1 -5 -18z"/>
<path d="M2340 1060 c0 -28 42 -124 59 -134 16 -10 14 6 -5 32 -9 13 -24 46
-35 75 -13 36 -18 44 -19 27z"/>
<path d="M2293 455 c-13 -24 -30 -154 -19 -143 4 3 11 28 16 55 l8 48 1 -48
c1 -29 5 -46 11 -42 11 7 12 87 1 125 -7 24 -7 25 -18 5z"/>
<path d="M2325 448 c3 -7 9 -40 14 -73 l9 -60 1 50 c1 56 -7 95 -20 95 -5 0
-6 -6 -4 -12z"/>
<path d="M2240 404 c-11 -27 -24 -57 -30 -66 -17 -29 -11 -44 6 -19 21 30 57
122 50 129 -3 3 -15 -17 -26 -44z"/>
<path d="M2782 435 c-20 -15 -21 -21 -17 -117 5 -104 13 -128 48 -128 17 0 19
5 14 38 -15 93 -17 127 -8 107 5 -11 14 -40 21 -65 12 -47 36 -88 46 -78 3 4
0 16 -6 28 -6 11 -9 31 -7 43 3 18 7 15 22 -20 20 -49 35 -57 27 -15 l-5 27
21 -25 c24 -28 29 -16 7 14 -26 34 -16 43 11 11 37 -44 23 -7 -37 92 -63 104
-89 121 -137 88z"/>
<path d="M2300 278 c-24 -36 -29 -54 -19 -69 6 -10 9 -8 9 10 0 14 7 32 16 42
9 10 14 23 12 29 -1 5 -10 0 -18 -12z"/>
<path d="M2157 268 c-2 -7 -1 -22 4 -33 6 -16 8 -14 8 13 1 33 -4 41 -12 20z"/>
<path d="M2196 242 c-4 -13 -5 -26 -2 -29 10 -11 18 4 14 29 l-4 23 -8 -23z"/>
<path d="M2232 243 c-6 -11 -7 -25 -3 -32 6 -9 10 -4 14 16 6 34 2 41 -11 16z"/>
</g>
</svg>
